<svg xmlns="http://www.w3.org/2000/svg" width="38.91" height="35.755" viewBox="0 0 38.91 35.755">
  <g id="chat" transform="translate(0.25 -2.215)">
    <path id="Path_2210" data-name="Path 2210" d="M9.64,24.745h8.322a.64.64,0,0,0,0-1.28H9.64a.64.64,0,0,0,0,1.28Z" transform="translate(-3.238 -7.556)" fill="#3366fb" stroke="#3366fb" stroke-width="0.5"/>
    <path id="Path_2211" data-name="Path 2211" d="M26.285,29.465H9.64a.64.64,0,1,0,0,1.28H26.285a.64.64,0,1,0,0-1.28Z" transform="translate(-3.238 -9.715)" fill="#3366fb" stroke="#3366fb" stroke-width="0.5"/>
    <path id="Path_2212" data-name="Path 2212" d="M26.285,35.465H9.64a.64.64,0,1,0,0,1.28H26.285a.64.64,0,1,0,0-1.28Z" transform="translate(-3.238 -11.874)" fill="#3366fb" stroke="#3366fb" stroke-width="0.5"/>
    <path id="Path_2213" data-name="Path 2213" d="M34.615,2.51,12.759,2.465a3.8,3.8,0,0,0-3.8,3.8v3.28L3.8,9.552a3.8,3.8,0,0,0-3.8,3.8V26.882a3.8,3.8,0,0,0,3.8,3.8H7.682v6.4a.64.64,0,0,0,1.114.431l6.212-6.834,10.643-.044a3.8,3.8,0,0,0,3.8-3.8v-.072l3.367,3.7a.64.64,0,0,0,1.114-.431v-6.4h.685a3.8,3.8,0,0,0,3.8-3.8V6.306A3.8,3.8,0,0,0,34.615,2.51ZM28.168,26.837a2.519,2.519,0,0,1-2.518,2.515L14.721,29.4a.641.641,0,0,0-.471.209L8.962,35.424V30.037a.64.64,0,0,0-.64-.64H3.8A2.519,2.519,0,0,1,1.28,26.882V13.348A2.519,2.519,0,0,1,3.8,10.832L9.6,10.82h0l16.048-.033A2.519,2.519,0,0,1,28.168,13.3V26.837Zm8.962-7a2.518,2.518,0,0,1-2.516,2.515H33.289a.64.64,0,0,0-.64.64v5.386l-3.2-3.521V13.3a3.8,3.8,0,0,0-3.8-3.8l-15.408.031V6.261a2.518,2.518,0,0,1,2.515-2.516l21.856.045h0a2.519,2.519,0,0,1,2.516,2.516V19.84Z" transform="translate(0 0)" fill="#3366fb" stroke="#3366fb" stroke-width="0.5"/>
  </g>
</svg>
