<svg xmlns="http://www.w3.org/2000/svg" width="33.208" height="34.129" viewBox="0 0 33.208 34.129">
  <g id="edit" transform="translate(-6.907)">
    <g id="Group_218" data-name="Group 218" transform="translate(6.907)">
      <g id="Group_217" data-name="Group 217" transform="translate(0)">
        <path id="Path_2214" data-name="Path 2214" d="M32.959,5.225a.824.824,0,0,0,.824-.824V1.8a1.8,1.8,0,0,0-1.8-1.8H14.555a.824.824,0,0,0-.583.241L7.148,7.065a.824.824,0,0,0-.241.582V32.327a1.8,1.8,0,0,0,1.8,1.8H31.982a1.8,1.8,0,0,0,1.8-1.8V19.75a.824.824,0,1,0-1.647,0V32.327a.154.154,0,0,1-.153.154H8.709a.154.154,0,0,1-.154-.154V8.472h5.023a1.8,1.8,0,0,0,1.8-1.8V1.648h16.6a.154.154,0,0,1,.153.154V4.4A.824.824,0,0,0,32.959,5.225ZM13.731,6.671a.154.154,0,0,1-.153.153H9.72l4.011-4.011Z" transform="translate(-6.907)" fill="#3366fb"/>
      </g>
    </g>
    <g id="Group_220" data-name="Group 220" transform="translate(12.526 4.908)">
      <g id="Group_219" data-name="Group 219">
        <path id="Path_2215" data-name="Path 2215" d="M117.975,75.414l-.969-.969a2.791,2.791,0,0,0-3.942,0l-7.694,7.694H92.025a.824.824,0,1,0,0,1.648h11.7l-4.958,4.958h-6.74a.824.824,0,1,0,0,1.648h5.092L97.1,90.4a.824.824,0,0,0-.211.362L95.62,95.35h-3.6a.824.824,0,1,0,0,1.648h4.222s.181-.02.207-.027l5.2-1.443a.824.824,0,0,0,.362-.211l15.96-15.96A2.79,2.79,0,0,0,117.975,75.414ZM97.43,94.99l.672-2.421,1.749,1.749Zm4-1.421-2.581-2.581,13.175-13.175,2.581,2.581ZM116.81,78.191l-1.038,1.038-2.581-2.581,1.038-1.038a1.141,1.141,0,0,1,1.612,0l.969.969A1.141,1.141,0,0,1,116.81,78.191Z" transform="translate(-91.201 -73.63)" fill="#3366fb"/>
      </g>
    </g>
  </g>
</svg>
