<svg xmlns="http://www.w3.org/2000/svg" xmlns:xlink="http://www.w3.org/1999/xlink" width="377.748" height="51.051" viewBox="0 0 377.748 51.051">
  <defs>
    <clipPath id="clip-path">
      <rect id="Rectangle_3812" data-name="Rectangle 3812" width="377.748" height="51.051" fill="none"/>
    </clipPath>
  </defs>
  <g id="Group_3648" data-name="Group 3648" transform="translate(0 0)">
    <g id="Group_3647" data-name="Group 3647" transform="translate(0 0)" clip-path="url(#clip-path)">
      <path id="Path_28611" data-name="Path 28611" d="M158.082,54.3V50.732l-2.971-4.917h1.919l1.916,3.362,1.866-3.362h1.883l-2.971,4.929V54.3Zm156.743-2.752,1.6-.166a2.068,2.068,0,0,0,.58,1.231,1.7,1.7,0,0,0,1.183.394,1.754,1.754,0,0,0,1.186-.35,1.058,1.058,0,0,0,.4-.818.81.81,0,0,0-.168-.515,1.337,1.337,0,0,0-.587-.366c-.19-.071-.624-.193-1.3-.371a4.321,4.321,0,0,1-1.839-.844,2.326,2.326,0,0,1-.395-2.93,2.219,2.219,0,0,1,1.009-.862,3.846,3.846,0,0,1,1.59-.3,3.267,3.267,0,0,1,2.289.708,2.567,2.567,0,0,1,.808,1.889l-1.641.06a1.494,1.494,0,0,0-.447-.944,1.565,1.565,0,0,0-1.028-.288,1.775,1.775,0,0,0-1.107.308.635.635,0,0,0-.259.53.665.665,0,0,0,.244.516,4.1,4.1,0,0,0,1.5.571,7.572,7.572,0,0,1,1.76.611,2.315,2.315,0,0,1,.894.864,2.628,2.628,0,0,1,.323,1.351,2.591,2.591,0,0,1-.387,1.368,2.34,2.34,0,0,1-1.094.947,4.383,4.383,0,0,1-1.763.31,3.4,3.4,0,0,1-2.36-.744A3.282,3.282,0,0,1,314.825,51.553Zm-3.442-.616-1.127-3.143-1.093,3.143Zm3,3.368h-1.768l-.7-1.933h-3.25l-.673,1.933h-1.735l3.146-8.49h1.733ZM303.62,45.044l.77-1.732h1.732l-1.528,1.732Zm.26.771h1.641V54.3H303.88ZM297.4,49.407h1.211a5.983,5.983,0,0,0,1.47-.1.883.883,0,0,0,.459-.36,1.145,1.145,0,0,0,.166-.638,1.059,1.059,0,0,0-.219-.694.982.982,0,0,0-.615-.331q-.2-.03-1.194-.03H297.4Zm-1.641,4.9v-8.49h3.447a5.641,5.641,0,0,1,1.888.229,1.875,1.875,0,0,1,.943.813,2.536,2.536,0,0,1,.354,1.338,2.333,2.333,0,0,1-.534,1.578,2.518,2.518,0,0,1-1.6.785,3.759,3.759,0,0,1,.872.712,9.607,9.607,0,0,1,.929,1.379l.988,1.656H301.1l-1.173-1.854a11.6,11.6,0,0,0-.866-1.245,1.267,1.267,0,0,0-.492-.352,2.637,2.637,0,0,0-.828-.095H297.4V54.3Zm-7.549,0v-8.49h6v1.435h-4.357v1.885h4.052V50.57h-4.052v2.3h4.516V54.3Zm-6.355-9.25h-.712c0-.089-.006-.158-.006-.208a1.382,1.382,0,0,1,.283-.935.906.906,0,0,1,.724-.328,1.4,1.4,0,0,1,.36.044,4.566,4.566,0,0,1,.6.248,1.8,1.8,0,0,0,.688.206.407.407,0,0,0,.3-.117.662.662,0,0,0,.153-.393h.713a1.835,1.835,0,0,1-.279,1.13.855.855,0,0,1-.7.34,1.629,1.629,0,0,1-.37-.042c-.085-.024-.3-.107-.636-.247a2.235,2.235,0,0,0-.737-.21.345.345,0,0,0-.277.115A.633.633,0,0,0,281.859,45.055Zm-1.818,9.25v-8.49h1.588l3.335,5.69v-5.69h1.517V54.3h-1.639l-3.284-5.582V54.3Zm-3.873-3.368-1.126-3.143-1.094,3.143Zm3,3.368H277.4l-.7-1.933h-3.25l-.673,1.933h-1.736l3.147-8.49h1.733Zm-10.289-3.131,1.584.51a3.807,3.807,0,0,1-1.214,2.083,3.339,3.339,0,0,1-2.153.68,3.415,3.415,0,0,1-2.656-1.156,4.564,4.564,0,0,1-1.039-3.163,4.792,4.792,0,0,1,1.044-3.294,3.5,3.5,0,0,1,2.749-1.174,3.281,3.281,0,0,1,2.417.922,3.4,3.4,0,0,1,.83,1.568l-1.619.4a1.82,1.82,0,0,0-.6-1.042,1.672,1.672,0,0,0-1.109-.381,1.807,1.807,0,0,0-1.463.678A3.423,3.423,0,0,0,265.087,50a3.687,3.687,0,0,0,.552,2.29,1.765,1.765,0,0,0,1.44.684,1.594,1.594,0,0,0,1.124-.435A2.561,2.561,0,0,0,268.879,51.174Zm-11.78-.237-1.126-3.143-1.094,3.143Zm3,3.368H258.33l-.7-1.933h-3.25l-.673,1.933h-1.735l3.147-8.49h1.733Zm-13.831-4.9h1.211a5.983,5.983,0,0,0,1.47-.1.881.881,0,0,0,.458-.36,1.145,1.145,0,0,0,.167-.638,1.059,1.059,0,0,0-.219-.694.984.984,0,0,0-.615-.331q-.2-.03-1.194-.03h-1.277Zm-1.641,4.9v-8.49h3.447a5.645,5.645,0,0,1,1.888.229,1.87,1.87,0,0,1,.943.813,2.537,2.537,0,0,1,.355,1.338,2.333,2.333,0,0,1-.534,1.578,2.518,2.518,0,0,1-1.6.785,3.759,3.759,0,0,1,.872.712,9.621,9.621,0,0,1,.928,1.379l.989,1.656h-1.956l-1.173-1.854a11.6,11.6,0,0,0-.866-1.245,1.267,1.267,0,0,0-.492-.352,2.637,2.637,0,0,0-.828-.095h-.332V54.3Zm-3.872-3.368-1.127-3.143-1.093,3.143Zm3,3.368h-1.767l-.7-1.933h-3.25l-.673,1.933h-1.735l3.146-8.49H240.5Zm-12.368-7.056v2.419h.892a4.019,4.019,0,0,0,1.289-.134,1.074,1.074,0,0,0,.509-.419,1.191,1.191,0,0,0,.185-.662,1.141,1.141,0,0,0-.259-.767,1.119,1.119,0,0,0-.656-.38,7.608,7.608,0,0,0-1.173-.057ZM229.742,54.3v-8.49h2.624a9.08,9.08,0,0,1,1.943.126,2.128,2.128,0,0,1,1.166.832,2.728,2.728,0,0,1,.47,1.654,2.9,2.9,0,0,1-.27,1.314,2.306,2.306,0,0,1-1.534,1.24,8.926,8.926,0,0,1-1.694.122h-1.064v3.2Zm-11.124-2.752,1.6-.166a2.069,2.069,0,0,0,.581,1.231,1.7,1.7,0,0,0,1.182.394,1.755,1.755,0,0,0,1.187-.35,1.061,1.061,0,0,0,.4-.818.81.81,0,0,0-.168-.515,1.333,1.333,0,0,0-.586-.366c-.191-.071-.625-.193-1.3-.371a4.332,4.332,0,0,1-1.84-.844,2.327,2.327,0,0,1-.394-2.93,2.213,2.213,0,0,1,1.008-.862,3.85,3.85,0,0,1,1.591-.3,3.266,3.266,0,0,1,2.288.708,2.56,2.56,0,0,1,.808,1.889l-1.641.06a1.494,1.494,0,0,0-.447-.944,1.568,1.568,0,0,0-1.029-.288,1.774,1.774,0,0,0-1.107.308.635.635,0,0,0-.259.53.664.664,0,0,0,.243.516,4.111,4.111,0,0,0,1.5.571,7.588,7.588,0,0,1,1.76.611,2.313,2.313,0,0,1,.894.864,2.628,2.628,0,0,1,.323,1.351,2.583,2.583,0,0,1-.387,1.368,2.335,2.335,0,0,1-1.094.947,4.378,4.378,0,0,1-1.763.31,3.4,3.4,0,0,1-2.36-.744A3.287,3.287,0,0,1,218.618,51.553Zm-3.442-.616-1.126-3.143-1.094,3.143Zm3,3.368h-1.768l-.7-1.933h-3.25l-.673,1.933h-1.735l3.147-8.49h1.733Zm-14.168,0V45.886h1.641V52.87h4.063V54.3Zm-8.219-8.49h1.641v4.6a10.2,10.2,0,0,0,.06,1.419,1.391,1.391,0,0,0,.495.838,1.66,1.66,0,0,0,1.071.317,1.561,1.561,0,0,0,1.039-.3,1.185,1.185,0,0,0,.421-.733,10.1,10.1,0,0,0,.072-1.442v-4.7h1.641v4.464a12.029,12.029,0,0,1-.132,2.162,2.328,2.328,0,0,1-1.437,1.76,3.976,3.976,0,0,1-1.555.259,4.268,4.268,0,0,1-1.755-.281,2.526,2.526,0,0,1-.945-.731,2.389,2.389,0,0,1-.456-.943,10.733,10.733,0,0,1-.16-2.157Zm-5.476,8.49-2.9-8.49h1.774l2.058,6.284,1.975-6.284h1.743L192.08,54.3Zm-8.1,0V45.886h1.641V52.87h4.063V54.3Zm-5.627-9.261.769-1.732h1.732l-1.527,1.732Zm1.708,5.893-1.126-3.143-1.094,3.143Zm3,3.368h-1.767l-.7-1.933h-3.25L174.9,54.3h-1.736l3.147-8.49h1.734Zm-12.776,0-2.9-8.49h1.773l2.058,6.284,1.976-6.284h1.742l-2.881,8.49Zm-23.483-2.752,1.595-.166a2.079,2.079,0,0,0,.581,1.231,1.7,1.7,0,0,0,1.183.394,1.754,1.754,0,0,0,1.186-.35,1.061,1.061,0,0,0,.4-.818.81.81,0,0,0-.167-.515,1.337,1.337,0,0,0-.587-.366c-.19-.071-.624-.193-1.3-.371a4.321,4.321,0,0,1-1.84-.844,2.265,2.265,0,0,1-.744-1.713,2.29,2.29,0,0,1,.349-1.217,2.219,2.219,0,0,1,1.009-.862,3.845,3.845,0,0,1,1.59-.3,3.267,3.267,0,0,1,2.289.708,2.564,2.564,0,0,1,.808,1.889l-1.641.06a1.489,1.489,0,0,0-.446-.944,1.569,1.569,0,0,0-1.029-.288,1.772,1.772,0,0,0-1.107.308.634.634,0,0,0-.26.53.665.665,0,0,0,.244.516,4.111,4.111,0,0,0,1.5.571,7.6,7.6,0,0,1,1.761.611,2.319,2.319,0,0,1,.893.864,2.628,2.628,0,0,1,.323,1.351,2.583,2.583,0,0,1-.387,1.368,2.34,2.34,0,0,1-1.094.947,4.383,4.383,0,0,1-1.763.31,3.4,3.4,0,0,1-2.36-.744A3.283,3.283,0,0,1,145.035,51.553Zm-7.026-1.5a3.293,3.293,0,0,0,.637,2.189,2.126,2.126,0,0,0,3.228.006,3.367,3.367,0,0,0,.628-2.22,3.294,3.294,0,0,0-.613-2.18,2.023,2.023,0,0,0-1.627-.719,2.044,2.044,0,0,0-1.634.727A3.326,3.326,0,0,0,138.009,50.054Zm-1.686.057a5.649,5.649,0,0,1,.371-2.182,3.992,3.992,0,0,1,.755-1.165A3.165,3.165,0,0,1,138.5,46a4.283,4.283,0,0,1,1.748-.336,3.719,3.719,0,0,1,2.869,1.166,4.612,4.612,0,0,1,1.075,3.245,4.587,4.587,0,0,1-1.068,3.223,3.681,3.681,0,0,1-2.853,1.164A3.721,3.721,0,0,1,137.39,53.3,4.525,4.525,0,0,1,136.323,50.111Zm-2.862-4.3H135.1V54.3h-1.641Zm-6.475,3.592H128.2a5.988,5.988,0,0,0,1.47-.1.881.881,0,0,0,.458-.36,1.145,1.145,0,0,0,.166-.638,1.059,1.059,0,0,0-.218-.694.984.984,0,0,0-.615-.331q-.2-.03-1.194-.03h-1.277Zm-1.641,4.9v-8.49h3.446a5.647,5.647,0,0,1,1.889.229,1.877,1.877,0,0,1,.943.813,2.537,2.537,0,0,1,.355,1.338,2.337,2.337,0,0,1-.534,1.578,2.518,2.518,0,0,1-1.6.785,3.777,3.777,0,0,1,.872.712,9.621,9.621,0,0,1,.928,1.379l.989,1.656h-1.956L129.5,52.451a11.736,11.736,0,0,0-.866-1.245,1.263,1.263,0,0,0-.493-.352,2.629,2.629,0,0,0-.828-.095h-.331V54.3Zm-7.457-4.251a3.293,3.293,0,0,0,.637,2.189,2.126,2.126,0,0,0,3.228.006,3.362,3.362,0,0,0,.629-2.22,3.289,3.289,0,0,0-.614-2.18,2.022,2.022,0,0,0-1.626-.719,2.044,2.044,0,0,0-1.634.727A3.326,3.326,0,0,0,117.887,50.054Zm-1.686.057a5.666,5.666,0,0,1,.371-2.182,4.01,4.01,0,0,1,.755-1.165A3.183,3.183,0,0,1,118.374,46a4.286,4.286,0,0,1,1.748-.336,3.718,3.718,0,0,1,2.869,1.166,4.608,4.608,0,0,1,1.076,3.245A4.591,4.591,0,0,1,123,53.295a4.115,4.115,0,0,1-5.73.006A4.521,4.521,0,0,1,116.2,50.111Zm-7.64,1.442,1.6-.166a2.074,2.074,0,0,0,.581,1.231,1.7,1.7,0,0,0,1.183.394,1.754,1.754,0,0,0,1.186-.35,1.061,1.061,0,0,0,.4-.818.815.815,0,0,0-.167-.515,1.337,1.337,0,0,0-.587-.366c-.191-.071-.625-.193-1.3-.371a4.332,4.332,0,0,1-1.84-.844,2.327,2.327,0,0,1-.394-2.93,2.22,2.22,0,0,1,1.009-.862,3.847,3.847,0,0,1,1.591-.3,3.266,3.266,0,0,1,2.288.708,2.567,2.567,0,0,1,.808,1.889l-1.641.06a1.49,1.49,0,0,0-.447-.944,1.567,1.567,0,0,0-1.028-.288,1.775,1.775,0,0,0-1.107.308.635.635,0,0,0-.259.53.665.665,0,0,0,.244.516,4.1,4.1,0,0,0,1.5.571,7.588,7.588,0,0,1,1.76.611,2.321,2.321,0,0,1,.894.864,2.628,2.628,0,0,1,.323,1.351,2.591,2.591,0,0,1-.387,1.368,2.344,2.344,0,0,1-1.094.947,4.383,4.383,0,0,1-1.763.31,3.4,3.4,0,0,1-2.36-.744A3.287,3.287,0,0,1,108.561,51.553ZM101.443,54.3v-8.49h6v1.435h-4.358v1.885h4.052V50.57h-4.052v2.3H107.6V54.3Zm-2.99-3.131,1.584.51a3.8,3.8,0,0,1-1.214,2.083,3.337,3.337,0,0,1-2.153.68,3.415,3.415,0,0,1-2.656-1.156,4.564,4.564,0,0,1-1.039-3.163,4.792,4.792,0,0,1,1.044-3.294,3.5,3.5,0,0,1,2.749-1.174,3.281,3.281,0,0,1,2.417.922,3.4,3.4,0,0,1,.829,1.568l-1.618.4a1.825,1.825,0,0,0-.6-1.042,1.675,1.675,0,0,0-1.109-.381,1.808,1.808,0,0,0-1.464.678A3.423,3.423,0,0,0,94.661,50a3.681,3.681,0,0,0,.553,2.29,1.762,1.762,0,0,0,1.439.684,1.594,1.594,0,0,0,1.124-.435A2.561,2.561,0,0,0,98.453,51.174Zm-8.173,0,1.584.51a3.8,3.8,0,0,1-1.215,2.083,3.335,3.335,0,0,1-2.152.68,3.415,3.415,0,0,1-2.656-1.156A4.56,4.56,0,0,1,84.8,50.129a4.788,4.788,0,0,1,1.045-3.294A3.5,3.5,0,0,1,88.6,45.66a3.279,3.279,0,0,1,2.416.922,3.394,3.394,0,0,1,.83,1.568l-1.619.4a1.815,1.815,0,0,0-.6-1.042,1.671,1.671,0,0,0-1.109-.381,1.807,1.807,0,0,0-1.463.678A3.423,3.423,0,0,0,86.488,50a3.681,3.681,0,0,0,.552,2.29,1.764,1.764,0,0,0,1.439.684,1.6,1.6,0,0,0,1.125-.435A2.561,2.561,0,0,0,90.28,51.174Zm-9.056-.237L80.1,47.794,79,50.937Zm3,3.368H82.455l-.7-1.933h-3.25L77.832,54.3H76.1l3.146-8.49h1.734Z" transform="translate(-9.372 -5.334)" fill="none" stroke="#fff" stroke-linejoin="round" stroke-width="4.393"/>
      <path id="Path_28612" data-name="Path 28612" d="M158.082,54.3V50.732l-2.972-4.917h1.919l1.916,3.362,1.866-3.362h1.883l-2.972,4.929V54.3Zm156.743-2.752,1.6-.166a2.068,2.068,0,0,0,.58,1.231,1.7,1.7,0,0,0,1.183.394,1.754,1.754,0,0,0,1.186-.35,1.061,1.061,0,0,0,.4-.818.81.81,0,0,0-.168-.515,1.326,1.326,0,0,0-.587-.366c-.19-.071-.624-.193-1.3-.371a4.321,4.321,0,0,1-1.839-.844,2.326,2.326,0,0,1-.395-2.93,2.219,2.219,0,0,1,1.009-.862,3.843,3.843,0,0,1,1.59-.3,3.267,3.267,0,0,1,2.289.708,2.567,2.567,0,0,1,.808,1.889l-1.641.06a1.494,1.494,0,0,0-.447-.944,1.565,1.565,0,0,0-1.028-.288,1.775,1.775,0,0,0-1.107.308.635.635,0,0,0-.259.53.665.665,0,0,0,.244.516,4.1,4.1,0,0,0,1.5.571,7.587,7.587,0,0,1,1.76.611,2.321,2.321,0,0,1,.894.864,2.628,2.628,0,0,1,.323,1.351,2.584,2.584,0,0,1-.388,1.368,2.333,2.333,0,0,1-1.093.947,4.383,4.383,0,0,1-1.763.31,3.4,3.4,0,0,1-2.36-.744,3.282,3.282,0,0,1-.982-2.162m-3.443-.616-1.126-3.143-1.093,3.143Zm3,3.368h-1.768l-.7-1.933h-3.25l-.673,1.933h-1.736l3.147-8.49h1.733ZM303.62,45.044l.77-1.732h1.731l-1.527,1.732Zm.26.771h1.641V54.3H303.88ZM297.4,49.407h1.211a5.983,5.983,0,0,0,1.47-.1.881.881,0,0,0,.458-.36,1.145,1.145,0,0,0,.167-.638,1.059,1.059,0,0,0-.219-.694.984.984,0,0,0-.615-.331q-.2-.03-1.194-.03H297.4Zm-1.641,4.9v-8.49h3.447a5.641,5.641,0,0,1,1.888.229,1.879,1.879,0,0,1,.943.813,2.536,2.536,0,0,1,.354,1.338,2.333,2.333,0,0,1-.534,1.578,2.518,2.518,0,0,1-1.6.785,3.759,3.759,0,0,1,.872.712,9.547,9.547,0,0,1,.928,1.379l.988,1.656H301.1l-1.173-1.854a11.6,11.6,0,0,0-.866-1.245,1.263,1.263,0,0,0-.493-.352,2.627,2.627,0,0,0-.827-.095H297.4V54.3Zm-7.549,0v-8.49h6v1.435h-4.358v1.885h4.052V50.57h-4.052v2.3h4.517V54.3Zm-6.355-9.25h-.713q-.005-.133-.005-.208a1.382,1.382,0,0,1,.283-.935.906.906,0,0,1,.723-.328,1.4,1.4,0,0,1,.361.044,4.566,4.566,0,0,1,.6.248,1.8,1.8,0,0,0,.688.206.408.408,0,0,0,.3-.117.662.662,0,0,0,.153-.393h.713a1.835,1.835,0,0,1-.279,1.13.855.855,0,0,1-.7.34,1.629,1.629,0,0,1-.37-.042c-.085-.024-.3-.107-.636-.247a2.235,2.235,0,0,0-.737-.21.343.343,0,0,0-.277.115.627.627,0,0,0-.1.4m-1.818,9.25v-8.49h1.588l3.335,5.69v-5.69h1.517V54.3h-1.639l-3.285-5.582V54.3Zm-3.873-3.368-1.126-3.143-1.094,3.143Zm3,3.368H277.4l-.7-1.933h-3.25l-.673,1.933h-1.736l3.147-8.49h1.733Zm-10.289-3.131,1.584.51a3.8,3.8,0,0,1-1.215,2.083,3.335,3.335,0,0,1-2.152.68,3.414,3.414,0,0,1-2.656-1.156,4.564,4.564,0,0,1-1.039-3.163,4.792,4.792,0,0,1,1.044-3.294,3.5,3.5,0,0,1,2.749-1.174,3.282,3.282,0,0,1,2.417.922,3.4,3.4,0,0,1,.83,1.568l-1.619.4a1.825,1.825,0,0,0-.6-1.042,1.672,1.672,0,0,0-1.109-.381,1.807,1.807,0,0,0-1.463.678A3.423,3.423,0,0,0,265.087,50a3.687,3.687,0,0,0,.552,2.29,1.764,1.764,0,0,0,1.439.684,1.6,1.6,0,0,0,1.125-.435,2.561,2.561,0,0,0,.675-1.368m-11.78-.237-1.126-3.143-1.094,3.143Zm3,3.368H258.33l-.7-1.933h-3.25l-.673,1.933h-1.735l3.146-8.49h1.733Zm-13.831-4.9h1.211a5.969,5.969,0,0,0,1.469-.1.883.883,0,0,0,.459-.36,1.145,1.145,0,0,0,.167-.638,1.059,1.059,0,0,0-.219-.694.984.984,0,0,0-.615-.331q-.2-.03-1.194-.03h-1.277Zm-1.641,4.9v-8.49h3.446a5.647,5.647,0,0,1,1.889.229,1.873,1.873,0,0,1,.943.813,2.537,2.537,0,0,1,.355,1.338,2.333,2.333,0,0,1-.534,1.578,2.518,2.518,0,0,1-1.6.785,3.759,3.759,0,0,1,.872.712,9.621,9.621,0,0,1,.928,1.379l.988,1.656h-1.955l-1.173-1.854a11.6,11.6,0,0,0-.866-1.245,1.269,1.269,0,0,0-.493-.352,2.63,2.63,0,0,0-.828-.095h-.331V54.3Zm-3.873-3.368-1.126-3.143-1.093,3.143Zm3,3.368h-1.768l-.7-1.933h-3.251L237.36,54.3h-1.735l3.146-8.49H240.5Zm-12.368-7.056v2.419h.892a4.008,4.008,0,0,0,1.288-.134,1.072,1.072,0,0,0,.509-.419,1.191,1.191,0,0,0,.185-.662,1.141,1.141,0,0,0-.259-.767,1.119,1.119,0,0,0-.656-.38,7.608,7.608,0,0,0-1.173-.057ZM229.742,54.3v-8.49h2.624a9.086,9.086,0,0,1,1.943.126,2.128,2.128,0,0,1,1.166.832,2.728,2.728,0,0,1,.469,1.654,2.9,2.9,0,0,1-.269,1.314,2.306,2.306,0,0,1-1.534,1.24,8.926,8.926,0,0,1-1.694.122h-1.064v3.2Zm-11.124-2.752,1.6-.166a2.069,2.069,0,0,0,.581,1.231,1.7,1.7,0,0,0,1.182.394,1.756,1.756,0,0,0,1.187-.35,1.061,1.061,0,0,0,.4-.818.81.81,0,0,0-.168-.515,1.331,1.331,0,0,0-.587-.366c-.19-.071-.624-.193-1.3-.371a4.321,4.321,0,0,1-1.84-.844,2.265,2.265,0,0,1-.744-1.713,2.29,2.29,0,0,1,.349-1.217,2.22,2.22,0,0,1,1.009-.862,3.85,3.85,0,0,1,1.591-.3,3.266,3.266,0,0,1,2.288.708,2.56,2.56,0,0,1,.808,1.889l-1.641.06a1.494,1.494,0,0,0-.447-.944,1.569,1.569,0,0,0-1.029-.288,1.774,1.774,0,0,0-1.107.308.635.635,0,0,0-.259.53.664.664,0,0,0,.243.516,4.111,4.111,0,0,0,1.5.571,7.6,7.6,0,0,1,1.76.611,2.319,2.319,0,0,1,.894.864,2.628,2.628,0,0,1,.323,1.351,2.583,2.583,0,0,1-.387,1.368,2.34,2.34,0,0,1-1.094.947,4.378,4.378,0,0,1-1.763.31,3.4,3.4,0,0,1-2.36-.744,3.287,3.287,0,0,1-.983-2.162m-3.442-.616-1.126-3.143-1.094,3.143Zm3,3.368h-1.768l-.7-1.933h-3.25l-.673,1.933h-1.735l3.146-8.49h1.734Zm-14.168,0V45.886h1.641V52.87h4.063V54.3Zm-8.219-8.49h1.641v4.6a10.148,10.148,0,0,0,.061,1.419,1.391,1.391,0,0,0,.495.838,1.658,1.658,0,0,0,1.071.317,1.563,1.563,0,0,0,1.039-.3,1.185,1.185,0,0,0,.421-.733,10.1,10.1,0,0,0,.072-1.442v-4.7h1.641v4.464a12.029,12.029,0,0,1-.132,2.162,2.328,2.328,0,0,1-1.437,1.76,3.979,3.979,0,0,1-1.555.259,4.268,4.268,0,0,1-1.755-.281,2.526,2.526,0,0,1-.945-.731,2.389,2.389,0,0,1-.456-.943,10.733,10.733,0,0,1-.16-2.157Zm-5.476,8.49-2.9-8.49h1.773l2.059,6.284,1.975-6.284h1.742l-2.881,8.49Zm-8.1,0V45.886h1.641V52.87h4.063V54.3Zm-5.628-9.261.77-1.732h1.732l-1.528,1.732Zm1.709,5.893-1.126-3.143-1.094,3.143Zm3,3.368h-1.767l-.7-1.933h-3.25L174.9,54.3h-1.736l3.147-8.49h1.734Zm-12.776,0-2.9-8.49h1.773l2.058,6.284,1.976-6.284h1.742l-2.881,8.49Zm-23.482-2.752,1.595-.166a2.074,2.074,0,0,0,.581,1.231,1.7,1.7,0,0,0,1.183.394,1.754,1.754,0,0,0,1.186-.35,1.061,1.061,0,0,0,.4-.818.81.81,0,0,0-.167-.515,1.337,1.337,0,0,0-.587-.366c-.19-.071-.624-.193-1.3-.371a4.322,4.322,0,0,1-1.839-.844,2.265,2.265,0,0,1-.744-1.713,2.29,2.29,0,0,1,.349-1.217,2.219,2.219,0,0,1,1.009-.862,3.845,3.845,0,0,1,1.59-.3,3.267,3.267,0,0,1,2.289.708,2.567,2.567,0,0,1,.808,1.889l-1.641.06a1.49,1.49,0,0,0-.447-.944,1.565,1.565,0,0,0-1.028-.288,1.776,1.776,0,0,0-1.107.308.635.635,0,0,0-.259.53.665.665,0,0,0,.244.516,4.1,4.1,0,0,0,1.5.571,7.573,7.573,0,0,1,1.76.611,2.315,2.315,0,0,1,.894.864,2.628,2.628,0,0,1,.323,1.351,2.591,2.591,0,0,1-.387,1.368,2.34,2.34,0,0,1-1.094.947,4.383,4.383,0,0,1-1.763.31,3.4,3.4,0,0,1-2.36-.744,3.283,3.283,0,0,1-.983-2.162m-7.027-1.5a3.293,3.293,0,0,0,.637,2.189,2.126,2.126,0,0,0,3.228.006,3.362,3.362,0,0,0,.628-2.22,3.3,3.3,0,0,0-.612-2.18,2.023,2.023,0,0,0-1.627-.719,2.044,2.044,0,0,0-1.634.727,3.326,3.326,0,0,0-.621,2.2m-1.686.057a5.649,5.649,0,0,1,.372-2.182,3.974,3.974,0,0,1,.755-1.165A3.171,3.171,0,0,1,138.494,46a4.289,4.289,0,0,1,1.748-.336,3.72,3.72,0,0,1,2.87,1.166,4.612,4.612,0,0,1,1.075,3.245,4.591,4.591,0,0,1-1.068,3.223,3.681,3.681,0,0,1-2.853,1.164A3.721,3.721,0,0,1,137.39,53.3a4.521,4.521,0,0,1-1.068-3.19m-2.861-4.3H135.1V54.3H133.46Zm-6.475,3.592H128.2a5.988,5.988,0,0,0,1.47-.1.885.885,0,0,0,.458-.36,1.145,1.145,0,0,0,.166-.638,1.063,1.063,0,0,0-.218-.694.984.984,0,0,0-.615-.331q-.2-.03-1.194-.03h-1.277Zm-1.641,4.9v-8.49h3.446a5.647,5.647,0,0,1,1.889.229,1.877,1.877,0,0,1,.943.813,2.537,2.537,0,0,1,.355,1.338,2.337,2.337,0,0,1-.534,1.578,2.518,2.518,0,0,1-1.6.785,3.777,3.777,0,0,1,.872.712,9.621,9.621,0,0,1,.928,1.379l.989,1.656h-1.957L129.5,52.451a11.776,11.776,0,0,0-.865-1.245,1.269,1.269,0,0,0-.493-.352,2.637,2.637,0,0,0-.828-.095h-.331V54.3Zm-7.457-4.251a3.293,3.293,0,0,0,.637,2.189,2.126,2.126,0,0,0,3.228.006,3.362,3.362,0,0,0,.628-2.22,3.289,3.289,0,0,0-.613-2.18,2.022,2.022,0,0,0-1.626-.719,2.044,2.044,0,0,0-1.634.727,3.321,3.321,0,0,0-.621,2.2m-1.686.057a5.666,5.666,0,0,1,.371-2.182,3.992,3.992,0,0,1,.755-1.165A3.183,3.183,0,0,1,118.374,46a4.286,4.286,0,0,1,1.748-.336,3.718,3.718,0,0,1,2.869,1.166,4.608,4.608,0,0,1,1.075,3.245A4.591,4.591,0,0,1,123,53.295a4.115,4.115,0,0,1-5.73.006,4.521,4.521,0,0,1-1.068-3.19m-7.64,1.442,1.6-.166a2.074,2.074,0,0,0,.581,1.231,1.7,1.7,0,0,0,1.183.394,1.754,1.754,0,0,0,1.186-.35,1.061,1.061,0,0,0,.4-.818.81.81,0,0,0-.168-.515,1.326,1.326,0,0,0-.587-.366c-.19-.071-.624-.193-1.3-.371a4.332,4.332,0,0,1-1.84-.844,2.327,2.327,0,0,1-.394-2.93,2.215,2.215,0,0,1,1.009-.862,3.843,3.843,0,0,1,1.59-.3,3.27,3.27,0,0,1,2.289.708,2.563,2.563,0,0,1,.807,1.889l-1.641.06a1.494,1.494,0,0,0-.447-.944,1.567,1.567,0,0,0-1.028-.288,1.775,1.775,0,0,0-1.107.308.635.635,0,0,0-.259.53.665.665,0,0,0,.244.516,4.1,4.1,0,0,0,1.5.571,7.6,7.6,0,0,1,1.76.611,2.327,2.327,0,0,1,.894.864,2.628,2.628,0,0,1,.323,1.351,2.591,2.591,0,0,1-.387,1.368,2.344,2.344,0,0,1-1.094.947,4.383,4.383,0,0,1-1.763.31,3.4,3.4,0,0,1-2.36-.744,3.287,3.287,0,0,1-.983-2.162M101.443,54.3v-8.49h6v1.435h-4.358v1.885h4.052V50.57h-4.052v2.3H107.6V54.3Zm-2.99-3.131,1.584.51a3.8,3.8,0,0,1-1.215,2.083,3.333,3.333,0,0,1-2.152.68,3.415,3.415,0,0,1-2.656-1.156,4.564,4.564,0,0,1-1.039-3.163,4.792,4.792,0,0,1,1.044-3.294,3.5,3.5,0,0,1,2.749-1.174,3.282,3.282,0,0,1,2.417.922,3.4,3.4,0,0,1,.829,1.568l-1.618.4a1.821,1.821,0,0,0-.6-1.042,1.672,1.672,0,0,0-1.109-.381,1.807,1.807,0,0,0-1.463.678A3.423,3.423,0,0,0,94.661,50a3.687,3.687,0,0,0,.552,2.29,1.764,1.764,0,0,0,1.44.684,1.594,1.594,0,0,0,1.124-.435,2.561,2.561,0,0,0,.675-1.368m-8.173,0,1.584.51a3.8,3.8,0,0,1-1.215,2.083,3.335,3.335,0,0,1-2.152.68,3.413,3.413,0,0,1-2.656-1.156,4.56,4.56,0,0,1-1.04-3.163,4.793,4.793,0,0,1,1.045-3.294A3.5,3.5,0,0,1,88.6,45.66a3.279,3.279,0,0,1,2.416.922,3.394,3.394,0,0,1,.83,1.568l-1.619.4a1.825,1.825,0,0,0-.6-1.042,1.671,1.671,0,0,0-1.109-.381,1.806,1.806,0,0,0-1.463.678A3.423,3.423,0,0,0,86.487,50a3.68,3.68,0,0,0,.553,2.29,1.764,1.764,0,0,0,1.439.684,1.6,1.6,0,0,0,1.125-.435,2.561,2.561,0,0,0,.675-1.368m-9.056-.237L80.1,47.794,79,50.937Zm3,3.368H82.455l-.7-1.933H78.5L77.832,54.3H76.1l3.147-8.49h1.734Z" transform="translate(-9.372 -5.334)" fill="#2e3191"/>
      <path id="Path_28613" data-name="Path 28613" d="M372.589,25.606a2.922,2.922,0,0,1,2.125.87,2.8,2.8,0,0,1,.893,2.071,2.708,2.708,0,0,1-.884,2.042,2.988,2.988,0,0,1-2.133.841,2.944,2.944,0,0,1-2.142-.816,2.947,2.947,0,0,1,.03-4.154A2.907,2.907,0,0,1,372.589,25.606Zm-24.094,0a2.926,2.926,0,0,1,2.125.87,2.8,2.8,0,0,1,.892,2.071,2.7,2.7,0,0,1-.884,2.042,2.988,2.988,0,0,1-2.133.841,2.945,2.945,0,0,1-2.142-.816,2.949,2.949,0,0,1,.03-4.154A2.908,2.908,0,0,1,348.5,25.606Zm-35.293,0a2.926,2.926,0,0,1,2.125.87,2.8,2.8,0,0,1,.893,2.071,2.708,2.708,0,0,1-.884,2.042,2.991,2.991,0,0,1-2.134.841,2.945,2.945,0,0,1-2.142-.816,2.949,2.949,0,0,1,.03-4.154A2.908,2.908,0,0,1,313.2,25.606Zm-33.884,0a2.922,2.922,0,0,1,2.125.87,2.8,2.8,0,0,1,.893,2.071,2.7,2.7,0,0,1-.884,2.042,2.988,2.988,0,0,1-2.133.841,2.945,2.945,0,0,1-2.142-.816,2.949,2.949,0,0,1,.03-4.154A2.908,2.908,0,0,1,279.318,25.606ZM181.18,36.455V32.475a4.619,4.619,0,0,0,1.682.385,2.93,2.93,0,0,0,2.979-2.506,4.785,4.785,0,0,1-2.423.724,3.7,3.7,0,0,1-2.888-1.272,4.7,4.7,0,0,1-1.133-3.238V18.879h4.732v6.572c0,.741.306,1.109.922,1.109.591,0,.888-.406.888-1.221v-6.46h4.733V29.79a6.893,6.893,0,0,1-1.772,4.933,6.773,6.773,0,0,1-5.1,2.229A7.308,7.308,0,0,1,181.18,36.455ZM355.673,3.5h8.442V19.9a3.745,3.745,0,0,0,.632,2.559,3.618,3.618,0,0,0,2.516.635h.433V31.1h-2.246a9.643,9.643,0,0,1-7.2-2.621,9.9,9.9,0,0,1-2.58-7.263ZM329.42,10.911V31.1h-8.442V3.5H331.8q4.945,0,7.674,2.387a8.637,8.637,0,0,1,3.034,6.779,8.629,8.629,0,0,1-3.751,7.069L343.625,31.1h-8.868l-4.1-8.883v-7.09h.668c1.769,0,2.658-.744,2.658-2.241q0-1.976-3.077-1.979ZM306.9,3.379v7.876a5.7,5.7,0,0,0-1.414-.262,2.356,2.356,0,0,0-2.338,2.345,4.389,4.389,0,0,0,.753,2.1l.647,1.09a11.117,11.117,0,0,1,1.755,5.7,8.989,8.989,0,0,1-2.95,6.8,10.117,10.117,0,0,1-7.2,2.787,9.59,9.59,0,0,1-4.043-.924V22.9a4.184,4.184,0,0,0,2.146.758,2.815,2.815,0,0,0,1.848-.614,1.953,1.953,0,0,0,.739-1.552,7.735,7.735,0,0,0-1.179-2.641,12.745,12.745,0,0,1-1.89-6.469,9.085,9.085,0,0,1,2.864-6.717,9.382,9.382,0,0,1,6.836-2.821A11.212,11.212,0,0,1,306.9,3.379ZM263.2,23.545v7.821a11,11,0,0,1-1.748.152,10.825,10.825,0,0,1-7.8-2.993,9.938,9.938,0,0,1-3.12-7.5,9.95,9.95,0,0,1,3.156-7.435,10.6,10.6,0,0,1,7.667-3.055A10.813,10.813,0,0,1,269.3,13.4a10.5,10.5,0,0,1,2.9,7.821V31.1h-7.8V21.766a3.828,3.828,0,0,0-.8-2.545,2.657,2.657,0,0,0-2.139-.944,2.9,2.9,0,0,0-2.1.869,2.826,2.826,0,0,0,1.961,4.924A3.556,3.556,0,0,0,263.2,23.545ZM244.368,4.234H249.3l-4.931,4.689h-4.391ZM247.1,31.1h-7.8V10.952h7.8Zm-20.06-13.483,8.854.22q-.875,6.684-4.761,10.325A14.228,14.228,0,0,1,221,31.807a14.735,14.735,0,0,1-10.638-4.132,13.709,13.709,0,0,1-4.277-10.262,13.827,13.827,0,0,1,4.362-10.366A14.9,14.9,0,0,1,221.21,2.841a14.4,14.4,0,0,1,10.5,4.118,15.908,15.908,0,0,1,4.128,7.931l-9.06.593q-1.524-4.489-5.784-4.489a6,6,0,0,0-4.484,1.814,6.378,6.378,0,0,0-1.762,4.62,6.089,6.089,0,0,0,1.734,4.462,6.5,6.5,0,0,0,8.677.207A6.986,6.986,0,0,0,227.043,17.621ZM164.686,31.1h-8.442V3.5h8.442ZM141.344,3.5h8.441V19.9a3.74,3.74,0,0,0,.633,2.559,3.615,3.615,0,0,0,2.515.635h.434V31.1h-2.246a9.646,9.646,0,0,1-7.2-2.621,9.9,9.9,0,0,1-2.579-7.263Zm-14.3,0h8.441V19.9a3.745,3.745,0,0,0,.632,2.559,3.618,3.618,0,0,0,2.516.635h.433V31.1h-2.246a9.643,9.643,0,0,1-7.2-2.621,9.9,9.9,0,0,1-2.579-7.263Zm-4.818,10.759v6.125h-5.493a2.9,2.9,0,0,0-1.584.324,1.256,1.256,0,0,0-.469,1.1,1.217,1.217,0,0,0,.476,1.151,4.435,4.435,0,0,0,1.947.276h5.678V31.1h-6.63q-4.69,0-7.177-2.166a7.879,7.879,0,0,1-2.481-6.269V11.855a8.03,8.03,0,0,1,2.346-6.166A9.348,9.348,0,0,1,115.442,3.5h7.334v7.945h-5.386c-1.442,0-2.161.462-2.161,1.379a1.2,1.2,0,0,0,.512,1.118,3.768,3.768,0,0,0,1.833.317Zm-17-10.759L92.838,32.676,80.538,3.5h9.786l2.6,8.621L95.795,3.5ZM65.9,10.993a6.013,6.013,0,0,0-4.434,1.855,6.136,6.136,0,0,0-1.833,4.475,6.116,6.116,0,0,0,1.84,4.476,6.243,6.243,0,0,0,8.875.007,6.134,6.134,0,0,0,1.819-4.483,6.133,6.133,0,0,0-1.819-4.482A6.005,6.005,0,0,0,65.9,10.993Zm.249-8.152A14.215,14.215,0,0,1,76.5,7.1a13.859,13.859,0,0,1,4.32,10.207,13.768,13.768,0,0,1-4.348,10.269,15.291,15.291,0,0,1-21.127-.014,13.781,13.781,0,0,1-4.37-10.255,13.634,13.634,0,0,1,4.4-10.263A15,15,0,0,1,66.149,2.841Zm-30.528,8.07V31.1H27.179V3.5H38q4.947,0,7.675,2.387a8.64,8.64,0,0,1,3.034,6.779,8.628,8.628,0,0,1-3.752,7.069L49.825,31.1H40.958l-4.1-8.883v-7.09h.667q2.654,0,2.658-2.241,0-1.976-3.077-1.979ZM2.841,3.5h10.3q9.178,0,9.181,7.021A6.92,6.92,0,0,1,19.184,16.3a6.884,6.884,0,0,1,4.548,6.856,7.459,7.459,0,0,1-2.686,6.027,7.728,7.728,0,0,1-2.807,1.49,15.286,15.286,0,0,1-4.029.428H12.6V24.027H14.04a3.656,3.656,0,0,0,1.8-.317,1.185,1.185,0,0,0,.518-1.11c0-.9-.71-1.345-2.125-1.345H12.6V13.9c1.563,0,2.346-.524,2.346-1.558,0-.959-.7-1.435-2.118-1.435H11.283V31.1H2.841Z" transform="translate(-0.35 -0.35)" fill="none" stroke="#fff" stroke-linejoin="round" stroke-width="5.682"/>
      <path id="Path_28614" data-name="Path 28614" d="M372.589,25.606a2.922,2.922,0,0,1,2.125.87,2.8,2.8,0,0,1,.893,2.071,2.708,2.708,0,0,1-.884,2.042,2.988,2.988,0,0,1-2.133.841,2.944,2.944,0,0,1-2.142-.816,2.947,2.947,0,0,1,.03-4.154,2.907,2.907,0,0,1,2.112-.853m-24.094,0a2.926,2.926,0,0,1,2.125.87,2.8,2.8,0,0,1,.892,2.071,2.7,2.7,0,0,1-.884,2.042,2.988,2.988,0,0,1-2.133.841,2.945,2.945,0,0,1-2.142-.816,2.949,2.949,0,0,1,.03-4.154,2.908,2.908,0,0,1,2.112-.853m-35.293,0a2.926,2.926,0,0,1,2.125.87,2.8,2.8,0,0,1,.893,2.071,2.708,2.708,0,0,1-.884,2.042,2.991,2.991,0,0,1-2.134.841,2.945,2.945,0,0,1-2.142-.816,2.949,2.949,0,0,1,.03-4.154,2.908,2.908,0,0,1,2.112-.853m-33.884,0a2.922,2.922,0,0,1,2.125.87,2.8,2.8,0,0,1,.893,2.071,2.7,2.7,0,0,1-.884,2.042,2.988,2.988,0,0,1-2.133.841,2.945,2.945,0,0,1-2.142-.816,2.949,2.949,0,0,1,.03-4.154,2.908,2.908,0,0,1,2.112-.853M181.18,36.455V32.475a4.637,4.637,0,0,0,1.682.385,2.93,2.93,0,0,0,2.979-2.506,4.785,4.785,0,0,1-2.423.724,3.7,3.7,0,0,1-2.888-1.272,4.7,4.7,0,0,1-1.133-3.238V18.879h4.732v6.572c0,.741.306,1.109.922,1.109.591,0,.888-.406.888-1.221v-6.46h4.733V29.79a6.893,6.893,0,0,1-1.772,4.933,6.774,6.774,0,0,1-5.1,2.23,7.309,7.309,0,0,1-2.617-.5M355.673,3.5h8.442V19.9a3.745,3.745,0,0,0,.632,2.559,3.618,3.618,0,0,0,2.516.635h.433V31.1h-2.246a9.643,9.643,0,0,1-7.2-2.621,9.9,9.9,0,0,1-2.58-7.262ZM329.42,10.91V31.1h-8.442V3.5H331.8q4.945,0,7.674,2.386a8.638,8.638,0,0,1,3.034,6.78,8.629,8.629,0,0,1-3.751,7.069L343.625,31.1h-8.868l-4.1-8.882v-7.09h.668c1.769,0,2.658-.745,2.658-2.241,0-1.317-1.023-1.98-3.077-1.98ZM306.9,3.379v7.876a5.7,5.7,0,0,0-1.414-.262,2.356,2.356,0,0,0-2.338,2.345,4.392,4.392,0,0,0,.753,2.1l.647,1.09a11.117,11.117,0,0,1,1.755,5.7,8.989,8.989,0,0,1-2.95,6.8,10.116,10.116,0,0,1-7.2,2.786,9.589,9.589,0,0,1-4.043-.923V22.9a4.184,4.184,0,0,0,2.146.758,2.815,2.815,0,0,0,1.848-.614,1.953,1.953,0,0,0,.739-1.552,7.735,7.735,0,0,0-1.179-2.641,12.745,12.745,0,0,1-1.89-6.469,9.085,9.085,0,0,1,2.864-6.717,9.382,9.382,0,0,1,6.836-2.821,11.212,11.212,0,0,1,3.432.538M263.2,23.545v7.821a11,11,0,0,1-1.748.152,10.825,10.825,0,0,1-7.8-2.993,9.938,9.938,0,0,1-3.12-7.5,9.948,9.948,0,0,1,3.156-7.435,10.6,10.6,0,0,1,7.667-3.055A10.813,10.813,0,0,1,269.3,13.4a10.5,10.5,0,0,1,2.9,7.821V31.1h-7.8V21.766a3.827,3.827,0,0,0-.8-2.545,2.654,2.654,0,0,0-2.139-.944,2.9,2.9,0,0,0-2.1.869,2.826,2.826,0,0,0,1.961,4.924,3.556,3.556,0,0,0,1.883-.524M244.368,4.234H249.3l-4.931,4.689h-4.391ZM247.1,31.1h-7.8V10.951h7.8ZM227.043,17.62l8.854.221q-.875,6.683-4.761,10.325A14.228,14.228,0,0,1,221,31.806a14.734,14.734,0,0,1-10.638-4.131,13.709,13.709,0,0,1-4.277-10.262,13.827,13.827,0,0,1,4.362-10.366A14.9,14.9,0,0,1,221.21,2.841a14.4,14.4,0,0,1,10.5,4.118,15.908,15.908,0,0,1,4.128,7.931l-9.06.593q-1.524-4.489-5.784-4.489a6,6,0,0,0-4.484,1.813,6.381,6.381,0,0,0-1.762,4.621,6.089,6.089,0,0,0,1.734,4.462,6.5,6.5,0,0,0,8.677.207,6.986,6.986,0,0,0,1.89-4.476M164.686,31.1h-8.442V3.5h8.442ZM141.344,3.5h8.441V19.9a3.74,3.74,0,0,0,.633,2.559,3.615,3.615,0,0,0,2.515.635h.434V31.1h-2.246a9.646,9.646,0,0,1-7.2-2.621,9.9,9.9,0,0,1-2.579-7.262Zm-14.3,0h8.441V19.9a3.745,3.745,0,0,0,.632,2.559,3.618,3.618,0,0,0,2.516.635h.433V31.1h-2.246a9.643,9.643,0,0,1-7.2-2.621,9.9,9.9,0,0,1-2.579-7.262Zm-4.818,10.759v6.125h-5.493a2.9,2.9,0,0,0-1.584.324,1.256,1.256,0,0,0-.469,1.1,1.217,1.217,0,0,0,.476,1.151,4.448,4.448,0,0,0,1.947.276h5.678V31.1h-6.63q-4.69,0-7.177-2.165a7.879,7.879,0,0,1-2.481-6.269V11.855a8.03,8.03,0,0,1,2.346-6.166A9.348,9.348,0,0,1,115.442,3.5h7.334v7.945h-5.386c-1.442,0-2.161.462-2.161,1.379a1.2,1.2,0,0,0,.512,1.117,3.756,3.756,0,0,0,1.833.317Zm-17-10.759L92.838,32.676,80.538,3.5h9.786l2.6,8.621L95.795,3.5ZM65.9,10.993a6.013,6.013,0,0,0-4.434,1.855,6.135,6.135,0,0,0-1.833,4.475,6.116,6.116,0,0,0,1.84,4.476,6.243,6.243,0,0,0,8.875.007,6.134,6.134,0,0,0,1.819-4.483,6.133,6.133,0,0,0-1.819-4.482A6.005,6.005,0,0,0,65.9,10.993m.249-8.152A14.215,14.215,0,0,1,76.5,7.1a13.859,13.859,0,0,1,4.32,10.207,13.768,13.768,0,0,1-4.348,10.269,15.294,15.294,0,0,1-21.127-.013,13.785,13.785,0,0,1-4.37-10.255,13.634,13.634,0,0,1,4.4-10.263A15,15,0,0,1,66.149,2.841M35.621,10.91V31.1H27.179V3.5H38q4.947,0,7.675,2.386a8.641,8.641,0,0,1,3.034,6.78,8.628,8.628,0,0,1-3.752,7.069L49.825,31.1H40.958l-4.1-8.882v-7.09h.667q2.654,0,2.658-2.241c0-1.317-1.023-1.98-3.077-1.98ZM2.841,3.5h10.3q9.178,0,9.181,7.021A6.922,6.922,0,0,1,19.184,16.3a6.883,6.883,0,0,1,4.548,6.855,7.46,7.46,0,0,1-2.686,6.028,7.728,7.728,0,0,1-2.807,1.49,15.291,15.291,0,0,1-4.029.427H12.6V24.027H14.04a3.666,3.666,0,0,0,1.8-.317,1.186,1.186,0,0,0,.518-1.111c0-.9-.71-1.344-2.125-1.344H12.6V13.9c1.563,0,2.346-.524,2.346-1.559,0-.958-.7-1.435-2.118-1.435H11.283V31.1H2.841Z" transform="translate(-0.35 -0.35)" fill="#2e3191"/>
    </g>
  </g>
</svg>
